<svg xmlns="http://www.w3.org/2000/svg" width="1024" height="1024" viewBox="0 0 1024 1024" version="1.1">
	<rect x="0" y="0" width="100%" height="100%" fill="#d05010" />
	<path d="M 0 512.001 L 0 1024.002 512.250 1023.751 L 1024.500 1023.500 1024.751 511.750 L 1025.002 0 512.501 0 L 0 0 0 512.001 M 0.496 512.500 C 0.496 794.100, 0.610 909.151, 0.750 768.168 C 0.890 627.186, 0.890 396.786, 0.750 256.168 C 0.610 115.551, 0.496 230.900, 0.496 512.500 M 236 449.441 C 236 541.534, 236.338 617.021, 236.750 617.191 C 237.162 617.361, 269.225 617.261, 308 616.969 C 377.354 616.446, 378.630 616.401, 386.500 614.179 C 402.333 609.707, 417.427 601.279, 428.783 590.566 C 450.483 570.095, 461.591 539.266, 458.205 508.908 C 457.567 503.184, 456.313 495.575, 455.420 492 C 453.057 482.539, 445.125 466.486, 439.114 459 C 433.342 451.810, 422.515 441.995, 416.809 438.778 L 413.117 436.698 416.809 434.018 C 423.835 428.918, 434.631 416.281, 438.788 408.290 C 447.337 391.859, 450.135 370.284, 446.089 352 C 440.242 325.573, 421.918 302.225, 398.554 291.430 C 379.889 282.806, 371.173 282, 296.539 282 L 236 282 236 449.441 M 484.999 345.250 C 484.999 380.038, 484.699 455.413, 484.334 512.750 L 483.670 617 512.085 616.999 L 540.500 616.999 540.500 583.749 C 540.500 565.462, 540.634 543.233, 540.797 534.351 L 541.094 518.202 554.154 503.087 L 567.214 487.971 576.857 501.357 C 582.161 508.719, 589.875 519.516, 594 525.352 L 601.500 535.961 618.250 535.981 L 635 536 635 515.546 L 635 495.092 619.020 473.434 L 603.040 451.775 605.770 448.539 C 607.271 446.759, 621.757 430.047, 637.961 411.401 C 698.167 342.120, 748.510 283.773, 748.833 282.900 C 749.027 282.377, 733.498 282, 711.740 282 L 674.313 282 667.406 290.199 C 660.725 298.131, 613.240 353.842, 567 408.001 C 554.625 422.496, 543.715 435.512, 542.757 436.927 C 541.092 439.384, 541.013 435.955, 541.007 360.750 L 541 282 513 282 L 485 282 484.999 345.250 M 292 376.022 L 292 416.157 327.250 415.768 C 360.218 415.404, 362.871 415.241, 368.233 413.249 C 379.272 409.148, 387.216 402.030, 391.898 392.046 C 394.181 387.177, 394.499 385.219, 394.499 376 C 394.500 366.278, 394.265 365.003, 391.326 358.799 C 387.432 350.581, 381.189 344.169, 372.832 339.806 L 366.500 336.500 329.250 336.194 L 292 335.888 292 376.022 M 737.996 418.500 C 737.993 438.300, 737.696 514.462, 737.335 587.750 L 736.678 721 766.339 721 L 796 721 796.167 553.500 C 796.258 461.375, 796.371 385.311, 796.417 384.469 C 796.489 383.132, 792.792 382.910, 767.250 382.719 L 738 382.500 737.996 418.500 M 656.667 463.667 C 656.300 464.033, 656 522.083, 656 592.667 L 656 721 685.500 721 L 715 721 715 592 L 715 463 686.167 463 C 670.308 463, 657.033 463.300, 656.667 463.667 M 292 515.861 L 292 562.721 297.250 563.352 C 300.137 563.699, 316.243 563.987, 333.040 563.991 C 366.255 564.001, 370.330 563.510, 380.962 558.218 C 393.504 551.976, 403.245 537.602, 404.893 522.902 C 407.284 501.581, 397.583 483.794, 378.281 474.108 C 369.259 469.581, 363.692 469.030, 326.750 469.015 L 292 469 292 515.861 M 572 640.500 L 572 721 602.750 721 L 633.500 721 633.333 664.750 C 633.241 633.813, 633.129 597.587, 633.083 584.250 L 633 560 602.500 560 L 572 560 572 640.500 M 235 690.003 L 235 721.006 387.250 720.753 L 539.500 720.500 539.816 703 C 539.990 693.375, 539.831 679.538, 539.463 672.250 L 538.795 659 386.898 659 L 235 659 235 690.003" stroke="none" fill="#100f0d0" fill-rule="evenodd"/>
</svg>